<svg xmlns="http://www.w3.org/2000/svg" width="25" height="25" viewBox="0 0 25 25" xmlns:xlink="http://www.w3.org/1999/xlink">
  <defs>
    <polygon id="a" points="3.888 14.973 7.775 14.973 7.775 0 3.888 0 0 0 0 14.973"/>
  </defs>
  <g fill="none" fill-rule="evenodd">
    <rect width="25" height="25" fill="#347CA9"/>
    <g transform="translate(4 6)">
      <rect width="17" height="3" y="12" fill="#ADCADC"/>
      <g transform="translate(9)">
        <mask id="b" fill="white">
          <use xlink:href="#a"/>
        </mask>
        <path fill="#FFFFFF" d="M5.04690529,14.972511 L5.04690529,8.14288546 L7.33939427,8.14288546 L7.68261013,5.48121145 L5.04690529,5.48121145 L5.04690529,3.78185022 C5.04690529,3.01123348 5.26087004,2.48610132 6.36598018,2.48610132 L7.77545154,2.48544053 L7.77545154,0.104867841 C7.53161894,0.0724889868 6.69498899,0 5.72164097,0 C3.68950441,0 2.298337,1.24037445 2.298337,3.51832599 L2.298337,5.48121145 L3.30396476e-05,5.48121145 L3.30396476e-05,8.14288546 L2.298337,8.14288546 L2.298337,14.972511 L5.04690529,14.972511 Z" mask="url(#b)"/>
      </g>
    </g>
  </g>
</svg>
