<svg xmlns="http://www.w3.org/2000/svg" width="25" height="25" viewBox="0 0 25 25">
  <g fill="none" fill-rule="evenodd">
    <rect width="25" height="25" fill="#347CA9"/>
    <path fill="#FFFFFF" d="M19.371776,9.68814448 C19.371776,9.5450438 19.368896,9.40258743 19.362368,9.26090423 C20.003264,8.7944901 20.560448,8.21248721 21,7.54981704 C20.411776,7.81282333 19.778816,7.99013673 19.114816,8.07003085 C19.792576,7.6610245 20.312896,7.01362442 20.558272,6.24200186 C19.923904,6.62053247 19.221632,6.89584502 18.47392,7.04410016 C17.874944,6.4017901 17.021824,6 16.077824,6 C14.264832,6 12.794688,7.48003855 12.794688,9.30452384 C12.794688,9.56392201 12.823552,9.8160395 12.879808,10.0580414 C10.15168,9.91996628 7.73248,8.60487043 6.1136,6.60526238 C5.831424,7.09351854 5.669056,7.6610245 5.669056,8.26622245 C5.669056,9.41283192 6.248576,10.4249744 7.129792,11.0170929 C6.591424,11.0004054 6.085504,10.8514415 5.643072,10.6036409 C5.642304,10.6174291 5.642304,10.6312817 5.642304,10.6457786 C5.642304,12.2464959 6.774016,13.5826606 8.275904,13.8856784 C8.000256,13.9611912 7.71008,14.0019114 7.41056,14.0019114 C7.199104,14.0019114 6.993408,13.9808426 6.793472,13.942313 C7.211392,15.2552826 8.423168,16.2107261 9.860096,16.2376582 C8.736384,17.1240319 7.321088,17.6522351 5.783104,17.6522351 C5.518208,17.6522351 5.25696,17.6370294 5,17.6064892 C6.452864,18.5437632 8.177792,19.0909091 10.031872,19.0909091 C16.069888,19.0909091 19.371776,14.0549379 19.371776,9.68814448 Z"/>
  </g>
</svg>
